<svg xmlns="http://www.w3.org/2000/svg" xmlns:xlink="http://www.w3.org/1999/xlink" width="598" zoomAndPan="magnify" viewBox="0 0 448.5 278.999983" height="372" preserveAspectRatio="xMidYMid meet" version="1.0"><defs><g/><clipPath id="cc403b7042"><path d="M 193.214844 84 L 214 84 L 214 115 L 193.214844 115 Z M 193.214844 84 " clip-rule="nonzero"/></clipPath><clipPath id="9d641e84ae"><path d="M 193.214844 83 L 215 83 L 215 115 L 193.214844 115 Z M 193.214844 83 " clip-rule="nonzero"/></clipPath><clipPath id="a1c31bcceb"><path d="M 233 84 L 253.964844 84 L 253.964844 115 L 233 115 Z M 233 84 " clip-rule="nonzero"/></clipPath><clipPath id="5ea14635d9"><path d="M 232 83 L 253.964844 83 L 253.964844 115 L 232 115 Z M 232 83 " clip-rule="nonzero"/></clipPath><clipPath id="804da8f5b1"><path d="M 213 76 L 234 76 L 234 122.78125 L 213 122.78125 Z M 213 76 " clip-rule="nonzero"/></clipPath><clipPath id="47fc85267e"><path d="M 213 75.53125 L 234 75.53125 L 234 122.78125 L 213 122.78125 Z M 213 75.53125 " clip-rule="nonzero"/></clipPath></defs><g clip-path="url(#cc403b7042)"><path fill="#ffffff" d="M 212.378906 114.054688 C 212.042969 114.054688 211.714844 113.941406 211.449219 113.730469 L 194.460938 100.339844 C 194.09375 100.050781 193.886719 99.621094 193.886719 99.15625 C 193.886719 98.691406 194.09375 98.257812 194.460938 97.96875 L 211.449219 84.578125 C 211.714844 84.367188 212.042969 84.253906 212.378906 84.253906 C 212.84375 84.253906 213.277344 84.464844 213.5625 84.832031 C 213.808594 85.144531 213.921875 85.542969 213.875 85.941406 C 213.828125 86.339844 213.625 86.699219 213.3125 86.945312 L 197.828125 99.15625 L 213.3125 111.359375 C 213.625 111.613281 213.828125 111.96875 213.875 112.367188 C 213.921875 112.765625 213.808594 113.160156 213.5625 113.476562 C 213.277344 113.84375 212.84375 114.054688 212.378906 114.054688 " fill-opacity="1" fill-rule="nonzero"/></g><g clip-path="url(#9d641e84ae)"><path fill="#4a2fbd" d="M 212.378906 83.613281 C 211.902344 83.613281 211.433594 83.773438 211.054688 84.074219 L 194.0625 97.464844 C 193.542969 97.878906 193.246094 98.492188 193.246094 99.15625 C 193.246094 99.816406 193.542969 100.433594 194.0625 100.84375 L 211.054688 114.234375 C 211.429688 114.53125 211.902344 114.695312 212.378906 114.695312 C 213.042969 114.695312 213.660156 114.394531 214.066406 113.875 C 214.421875 113.425781 214.578125 112.863281 214.511719 112.292969 C 214.445312 111.722656 214.160156 111.210938 213.707031 110.855469 L 198.863281 99.15625 L 213.707031 87.453125 C 214.160156 87.09375 214.445312 86.585938 214.511719 86.015625 C 214.578125 85.445312 214.421875 84.882812 214.066406 84.433594 C 213.660156 83.910156 213.042969 83.613281 212.378906 83.613281 Z M 212.378906 84.898438 C 212.636719 84.898438 212.890625 85.011719 213.058594 85.226562 C 213.355469 85.601562 213.289062 86.148438 212.914062 86.441406 L 196.789062 99.15625 L 212.914062 111.867188 C 213.289062 112.160156 213.355469 112.707031 213.058594 113.082031 C 212.890625 113.296875 212.636719 113.410156 212.378906 113.410156 C 212.191406 113.410156 212.007812 113.351562 211.847656 113.226562 L 194.855469 99.835938 C 194.648438 99.671875 194.527344 99.417969 194.527344 99.15625 C 194.527344 98.886719 194.648438 98.636719 194.855469 98.472656 L 211.847656 85.082031 C 212.003906 84.957031 212.191406 84.898438 212.378906 84.898438 " fill-opacity="1" fill-rule="nonzero"/></g><g clip-path="url(#a1c31bcceb)"><path fill="#ffffff" d="M 234.796875 114.054688 C 234.332031 114.054688 233.902344 113.84375 233.613281 113.476562 C 233.101562 112.824219 233.214844 111.875 233.867188 111.359375 L 249.351562 99.15625 L 233.867188 86.945312 C 233.214844 86.433594 233.101562 85.484375 233.613281 84.832031 C 233.902344 84.464844 234.332031 84.253906 234.796875 84.253906 C 235.132812 84.253906 235.464844 84.367188 235.726562 84.578125 L 252.71875 97.96875 C 253.082031 98.257812 253.289062 98.691406 253.289062 99.15625 C 253.289062 99.621094 253.082031 100.050781 252.714844 100.339844 L 235.726562 113.730469 C 235.464844 113.941406 235.132812 114.054688 234.796875 114.054688 " fill-opacity="1" fill-rule="nonzero"/></g><g clip-path="url(#5ea14635d9)"><path fill="#4a2fbd" d="M 234.796875 83.613281 C 234.136719 83.613281 233.519531 83.910156 233.109375 84.433594 C 232.378906 85.363281 232.539062 86.71875 233.46875 87.453125 L 248.316406 99.15625 L 233.46875 110.855469 C 232.539062 111.589844 232.378906 112.945312 233.109375 113.875 C 233.519531 114.394531 234.136719 114.695312 234.796875 114.695312 C 235.277344 114.695312 235.746094 114.53125 236.121094 114.234375 L 253.113281 100.84375 C 253.632812 100.433594 253.929688 99.816406 253.929688 99.15625 C 253.929688 98.492188 253.632812 97.878906 253.117188 97.464844 L 236.125 84.074219 C 235.75 83.773438 235.277344 83.613281 234.796875 83.613281 Z M 234.796875 84.898438 C 234.984375 84.898438 235.175781 84.957031 235.332031 85.082031 L 252.320312 98.472656 C 252.527344 98.636719 252.648438 98.886719 252.648438 99.15625 C 252.648438 99.417969 252.527344 99.671875 252.320312 99.835938 L 235.332031 113.226562 C 235.175781 113.351562 234.984375 113.410156 234.796875 113.410156 C 234.539062 113.410156 234.289062 113.296875 234.117188 113.082031 C 233.824219 112.707031 233.886719 112.160156 234.261719 111.867188 L 250.386719 99.15625 L 234.261719 86.441406 C 233.886719 86.148438 233.824219 85.601562 234.117188 85.226562 C 234.289062 85.011719 234.542969 84.898438 234.796875 84.898438 " fill-opacity="1" fill-rule="nonzero"/></g><g clip-path="url(#804da8f5b1)"><path fill="#ffffff" d="M 215.144531 122.136719 C 214.957031 122.136719 214.777344 122.097656 214.601562 122.03125 C 214.226562 121.886719 213.929688 121.601562 213.769531 121.234375 C 213.605469 120.867188 213.597656 120.457031 213.742188 120.082031 L 230.335938 77.136719 C 230.558594 76.5625 231.121094 76.175781 231.738281 76.175781 C 231.925781 76.175781 232.109375 76.210938 232.28125 76.277344 C 233.054688 76.578125 233.441406 77.453125 233.140625 78.226562 L 216.550781 121.171875 C 216.328125 121.746094 215.761719 122.136719 215.144531 122.136719 " fill-opacity="1" fill-rule="nonzero"/></g><g clip-path="url(#47fc85267e)"><path fill="#4a2fbd" d="M 231.738281 75.53125 C 230.859375 75.53125 230.054688 76.085938 229.738281 76.90625 L 213.144531 119.847656 C 212.9375 120.386719 212.953125 120.96875 213.183594 121.496094 C 213.414062 122.019531 213.835938 122.425781 214.371094 122.628906 C 214.621094 122.726562 214.878906 122.777344 215.144531 122.777344 C 216.023438 122.777344 216.828125 122.226562 217.148438 121.402344 L 233.738281 78.460938 C 234.167969 77.351562 233.617188 76.105469 232.511719 75.679688 C 232.265625 75.582031 232.003906 75.53125 231.738281 75.53125 Z M 231.738281 76.816406 C 231.84375 76.816406 231.945312 76.835938 232.050781 76.875 C 232.496094 77.046875 232.714844 77.546875 232.542969 77.996094 L 215.949219 120.9375 C 215.820312 121.28125 215.492188 121.492188 215.144531 121.492188 C 215.039062 121.492188 214.9375 121.476562 214.832031 121.433594 C 214.386719 121.261719 214.167969 120.757812 214.339844 120.3125 L 230.933594 77.371094 C 231.066406 77.027344 231.390625 76.816406 231.738281 76.816406 " fill-opacity="1" fill-rule="nonzero"/></g><g fill="#ffffff" fill-opacity="1"><g transform="translate(191.843536, 168.271623)"><g><path d="M 8.78125 0 L 8.78125 -14.082031 L 23.363281 -14.082031 L 23.363281 0 L 29.867188 0 L 29.867188 -33.59375 L 23.363281 -33.59375 L 23.363281 -20.171875 L 8.78125 -20.171875 L 8.78125 -33.59375 L 2.238281 -33.59375 L 2.238281 0 Z M 8.78125 0 "/></g></g></g><g fill="#ffffff" fill-opacity="1"><g transform="translate(222.406715, 168.271623)"><g><path d="M 18.929688 -13.253906 L 25.804688 -13.253906 L 25.804688 -7.167969 C 23.902344 -6.089844 21.746094 -5.550781 19.46875 -5.550781 C 13.421875 -5.550781 8.492188 -9.03125 8.492188 -16.777344 L 8.492188 -16.859375 C 8.492188 -24.644531 13.421875 -28.085938 19.46875 -28.085938 C 23.074219 -28.085938 26.386719 -27.050781 28.871094 -25.269531 L 31.398438 -30.941406 C 27.339844 -33.179688 23.609375 -34.171875 19.304688 -34.171875 C 8.863281 -34.171875 1.699219 -27.132812 1.699219 -16.859375 L 1.699219 -16.777344 C 1.699219 -6.542969 8.863281 0.539062 19.304688 0.539062 C 23.527344 0.539062 28.707031 -0.664062 31.976562 -2.816406 L 31.976562 -18.472656 L 18.929688 -18.472656 Z M 18.929688 -13.253906 "/></g></g></g><g fill="#ff00ff" fill-opacity="1"><g transform="translate(152.653132, 197.455229)"><g><path d="M 12.851562 -5.484375 C 12.621094 -4.5 12.40625 -3.539062 12.234375 -2.789062 L 11.621094 -5.5 L 10.484375 -11.042969 L 6.964844 -11.042969 L 5.847656 -5.519531 L 5.214844 -2.558594 C 5.039062 -3.367188 4.886719 -4.15625 4.597656 -5.484375 L 3.5 -11.042969 L 0.347656 -11.042969 L 3.097656 0 L 6.945312 0 L 8.117188 -5.5 C 8.40625 -6.734375 8.578125 -7.558594 8.734375 -8.253906 C 8.945312 -7.328125 9.136719 -6.40625 9.347656 -5.5 L 10.503906 0 L 14.410156 0 L 17.082031 -11.042969 L 13.929688 -11.042969 Z M 12.851562 -5.484375 "/></g></g></g><g fill="#ff00ff" fill-opacity="1"><g transform="translate(169.344881, 197.455229)"><g><path d="M 12.214844 -5.15625 C 12.214844 -9.097656 10.0625 -11.484375 6.523438 -11.484375 C 3.019531 -11.484375 0.769531 -9.0625 0.769531 -5.617188 L 0.769531 -5.597656 C 0.769531 -2.097656 3.175781 0.289062 6.886719 0.289062 C 9.042969 0.289062 10.5625 -0.382812 11.675781 -1.078125 L 10.351562 -3.445312 C 9.542969 -2.867188 8.367188 -2.386719 7.023438 -2.386719 C 5.347656 -2.386719 4.25 -3.460938 3.945312 -4.886719 L 12.214844 -4.886719 Z M 6.503906 -9.003906 C 7.984375 -9.003906 8.867188 -8.042969 9.097656 -6.773438 L 3.964844 -6.773438 C 4.25 -8.042969 5.175781 -9.003906 6.503906 -9.003906 Z M 6.503906 -9.003906 "/></g></g></g><g fill="#ff00ff" fill-opacity="1"><g transform="translate(181.613603, 197.455229)"><g><path d="M 6.058594 0.308594 C 9.832031 0.308594 12.195312 -2.191406 12.195312 -5.578125 L 12.195312 -5.617188 C 12.195312 -9.003906 9.964844 -11.484375 6.195312 -11.484375 C 5.484375 -11.484375 4.769531 -11.351562 4.097656 -11.195312 L 4.097656 -15.601562 L 1.039062 -15.601562 L 1.039062 -0.769531 C 2.617188 0 4 0.308594 6.058594 0.308594 Z M 6.058594 -2.425781 C 5.347656 -2.425781 4.695312 -2.519531 4.097656 -2.675781 L 4.097656 -8.464844 C 4.695312 -8.597656 5.40625 -8.753906 6.058594 -8.753906 C 8.078125 -8.753906 9.117188 -7.386719 9.117188 -5.617188 L 9.117188 -5.578125 C 9.117188 -3.808594 8.078125 -2.425781 6.058594 -2.425781 Z M 6.058594 -2.425781 "/></g></g></g><g fill="#ff00ff" fill-opacity="1"><g transform="translate(193.863098, 197.455229)"><g/></g></g><g fill="#ff00ff" fill-opacity="1"><g transform="translate(196.381934, 197.455229)"><g><path d="M 6.90625 0.308594 C 8.964844 0.308594 10.351562 0 11.925781 -0.769531 L 11.925781 -15.601562 L 8.886719 -15.601562 L 8.886719 -11.195312 C 8.214844 -11.351562 7.503906 -11.484375 6.789062 -11.484375 C 3.019531 -11.484375 0.789062 -9.003906 0.789062 -5.617188 L 0.789062 -5.578125 C 0.789062 -2.191406 3.136719 0.308594 6.90625 0.308594 Z M 6.90625 -2.425781 C 4.90625 -2.425781 3.847656 -3.808594 3.847656 -5.578125 L 3.847656 -5.617188 C 3.847656 -7.386719 4.90625 -8.753906 6.90625 -8.753906 C 7.578125 -8.753906 8.292969 -8.597656 8.886719 -8.464844 L 8.886719 -2.675781 C 8.292969 -2.519531 7.636719 -2.425781 6.90625 -2.425781 Z M 6.90625 -2.425781 "/></g></g></g><g fill="#ff00ff" fill-opacity="1"><g transform="translate(208.631429, 197.455229)"><g><path d="M 12.214844 -5.15625 C 12.214844 -9.097656 10.0625 -11.484375 6.523438 -11.484375 C 3.019531 -11.484375 0.769531 -9.0625 0.769531 -5.617188 L 0.769531 -5.597656 C 0.769531 -2.097656 3.175781 0.289062 6.886719 0.289062 C 9.042969 0.289062 10.5625 -0.382812 11.675781 -1.078125 L 10.351562 -3.445312 C 9.542969 -2.867188 8.367188 -2.386719 7.023438 -2.386719 C 5.347656 -2.386719 4.25 -3.460938 3.945312 -4.886719 L 12.214844 -4.886719 Z M 6.503906 -9.003906 C 7.984375 -9.003906 8.867188 -8.042969 9.097656 -6.773438 L 3.964844 -6.773438 C 4.25 -8.042969 5.175781 -9.003906 6.503906 -9.003906 Z M 6.503906 -9.003906 "/></g></g></g><g fill="#ff00ff" fill-opacity="1"><g transform="translate(220.900153, 197.455229)"><g><path d="M 6.097656 -2.15625 L 3.425781 -11.042969 L 0.230469 -11.042969 L 4 0 L 8.195312 0 L 11.964844 -11.042969 L 8.773438 -11.042969 Z M 6.097656 -2.15625 "/></g></g></g><g fill="#ff00ff" fill-opacity="1"><g transform="translate(232.361198, 197.455229)"><g><path d="M 12.214844 -5.15625 C 12.214844 -9.097656 10.0625 -11.484375 6.523438 -11.484375 C 3.019531 -11.484375 0.769531 -9.0625 0.769531 -5.617188 L 0.769531 -5.597656 C 0.769531 -2.097656 3.175781 0.289062 6.886719 0.289062 C 9.042969 0.289062 10.5625 -0.382812 11.675781 -1.078125 L 10.351562 -3.445312 C 9.542969 -2.867188 8.367188 -2.386719 7.023438 -2.386719 C 5.347656 -2.386719 4.25 -3.460938 3.945312 -4.886719 L 12.214844 -4.886719 Z M 6.503906 -9.003906 C 7.984375 -9.003906 8.867188 -8.042969 9.097656 -6.773438 L 3.964844 -6.773438 C 4.25 -8.042969 5.175781 -9.003906 6.503906 -9.003906 Z M 6.503906 -9.003906 "/></g></g></g><g fill="#ff00ff" fill-opacity="1"><g transform="translate(244.629922, 197.455229)"><g><path d="M 4.097656 0 L 4.097656 -15.601562 L 1.039062 -15.601562 L 1.039062 0 Z M 4.097656 0 "/></g></g></g><g fill="#ff00ff" fill-opacity="1"><g transform="translate(249.033345, 197.455229)"><g><path d="M 6.90625 0.308594 C 10.523438 0.308594 13.042969 -2.191406 13.042969 -5.597656 L 13.042969 -5.617188 C 13.042969 -9.003906 10.523438 -11.484375 6.90625 -11.484375 C 3.289062 -11.484375 0.789062 -9.003906 0.789062 -5.617188 L 0.789062 -5.597656 C 0.789062 -2.191406 3.308594 0.308594 6.90625 0.308594 Z M 6.90625 -2.425781 C 5.078125 -2.425781 3.847656 -3.808594 3.847656 -5.597656 L 3.847656 -5.636719 C 3.847656 -7.40625 5.058594 -8.753906 6.90625 -8.753906 C 8.773438 -8.753906 9.964844 -7.40625 9.964844 -5.636719 L 9.964844 -5.597656 C 9.964844 -3.808594 8.753906 -2.425781 6.90625 -2.425781 Z M 6.90625 -2.425781 "/></g></g></g><g fill="#ff00ff" fill-opacity="1"><g transform="translate(262.109742, 197.455229)"><g><path d="M 4.097656 4.230469 L 4.097656 -0.0195312 C 4.769531 0.152344 5.484375 0.289062 6.195312 0.289062 C 9.945312 0.289062 12.195312 -2.191406 12.195312 -5.558594 L 12.195312 -5.597656 C 12.195312 -8.984375 9.832031 -11.484375 6.058594 -11.484375 C 4 -11.484375 2.367188 -10.964844 1.039062 -10.425781 L 1.039062 4.230469 Z M 6.058594 -2.441406 C 5.40625 -2.441406 4.695312 -2.597656 4.097656 -2.75 L 4.097656 -8.523438 C 4.695312 -8.675781 5.347656 -8.753906 6.058594 -8.753906 C 8.078125 -8.753906 9.117188 -7.386719 9.117188 -5.597656 L 9.117188 -5.558594 C 9.117188 -3.789062 8.078125 -2.441406 6.058594 -2.441406 Z M 6.058594 -2.441406 "/></g></g></g><g fill="#ff00ff" fill-opacity="1"><g transform="translate(274.359234, 197.455229)"><g><path d="M 12.214844 -5.15625 C 12.214844 -9.097656 10.0625 -11.484375 6.523438 -11.484375 C 3.019531 -11.484375 0.769531 -9.0625 0.769531 -5.617188 L 0.769531 -5.597656 C 0.769531 -2.097656 3.175781 0.289062 6.886719 0.289062 C 9.042969 0.289062 10.5625 -0.382812 11.675781 -1.078125 L 10.351562 -3.445312 C 9.542969 -2.867188 8.367188 -2.386719 7.023438 -2.386719 C 5.347656 -2.386719 4.25 -3.460938 3.945312 -4.886719 L 12.214844 -4.886719 Z M 6.503906 -9.003906 C 7.984375 -9.003906 8.867188 -8.042969 9.097656 -6.773438 L 3.964844 -6.773438 C 4.25 -8.042969 5.175781 -9.003906 6.503906 -9.003906 Z M 6.503906 -9.003906 "/></g></g></g><g fill="#ff00ff" fill-opacity="1"><g transform="translate(286.627952, 197.455229)"><g><path d="M 4.097656 0 L 4.097656 -8.078125 C 4.347656 -8.136719 5.597656 -8.234375 6.058594 -8.234375 L 7.714844 -8.234375 L 7.714844 -11.042969 L 5.558594 -11.042969 C 4.558594 -11.042969 2.65625 -10.964844 1.039062 -10.617188 L 1.039062 0 Z M 4.097656 0 "/></g></g></g><g fill="#00ffff" fill-opacity="1"><g transform="translate(151.93162, 197.455229)"><g><path d="M 12.851562 -5.484375 C 12.621094 -4.5 12.40625 -3.539062 12.234375 -2.789062 L 11.621094 -5.5 L 10.484375 -11.042969 L 6.964844 -11.042969 L 5.847656 -5.519531 L 5.214844 -2.558594 C 5.039062 -3.367188 4.886719 -4.15625 4.597656 -5.484375 L 3.5 -11.042969 L 0.347656 -11.042969 L 3.097656 0 L 6.945312 0 L 8.117188 -5.5 C 8.40625 -6.734375 8.578125 -7.558594 8.734375 -8.253906 C 8.945312 -7.328125 9.136719 -6.40625 9.347656 -5.5 L 10.503906 0 L 14.410156 0 L 17.082031 -11.042969 L 13.929688 -11.042969 Z M 12.851562 -5.484375 "/></g></g></g><g fill="#00ffff" fill-opacity="1"><g transform="translate(168.623369, 197.455229)"><g><path d="M 12.214844 -5.15625 C 12.214844 -9.097656 10.0625 -11.484375 6.523438 -11.484375 C 3.019531 -11.484375 0.769531 -9.0625 0.769531 -5.617188 L 0.769531 -5.597656 C 0.769531 -2.097656 3.175781 0.289062 6.886719 0.289062 C 9.042969 0.289062 10.5625 -0.382812 11.675781 -1.078125 L 10.351562 -3.445312 C 9.542969 -2.867188 8.367188 -2.386719 7.023438 -2.386719 C 5.347656 -2.386719 4.25 -3.460938 3.945312 -4.886719 L 12.214844 -4.886719 Z M 6.503906 -9.003906 C 7.984375 -9.003906 8.867188 -8.042969 9.097656 -6.773438 L 3.964844 -6.773438 C 4.25 -8.042969 5.175781 -9.003906 6.503906 -9.003906 Z M 6.503906 -9.003906 "/></g></g></g><g fill="#00ffff" fill-opacity="1"><g transform="translate(180.892092, 197.455229)"><g><path d="M 6.058594 0.308594 C 9.832031 0.308594 12.195312 -2.191406 12.195312 -5.578125 L 12.195312 -5.617188 C 12.195312 -9.003906 9.964844 -11.484375 6.195312 -11.484375 C 5.484375 -11.484375 4.769531 -11.351562 4.097656 -11.195312 L 4.097656 -15.601562 L 1.039062 -15.601562 L 1.039062 -0.769531 C 2.617188 0 4 0.308594 6.058594 0.308594 Z M 6.058594 -2.425781 C 5.347656 -2.425781 4.695312 -2.519531 4.097656 -2.675781 L 4.097656 -8.464844 C 4.695312 -8.597656 5.40625 -8.753906 6.058594 -8.753906 C 8.078125 -8.753906 9.117188 -7.386719 9.117188 -5.617188 L 9.117188 -5.578125 C 9.117188 -3.808594 8.078125 -2.425781 6.058594 -2.425781 Z M 6.058594 -2.425781 "/></g></g></g><g fill="#00ffff" fill-opacity="1"><g transform="translate(193.141587, 197.455229)"><g/></g></g><g fill="#00ffff" fill-opacity="1"><g transform="translate(195.660423, 197.455229)"><g><path d="M 6.90625 0.308594 C 8.964844 0.308594 10.351562 0 11.925781 -0.769531 L 11.925781 -15.601562 L 8.886719 -15.601562 L 8.886719 -11.195312 C 8.214844 -11.351562 7.503906 -11.484375 6.789062 -11.484375 C 3.019531 -11.484375 0.789062 -9.003906 0.789062 -5.617188 L 0.789062 -5.578125 C 0.789062 -2.191406 3.136719 0.308594 6.90625 0.308594 Z M 6.90625 -2.425781 C 4.90625 -2.425781 3.847656 -3.808594 3.847656 -5.578125 L 3.847656 -5.617188 C 3.847656 -7.386719 4.90625 -8.753906 6.90625 -8.753906 C 7.578125 -8.753906 8.292969 -8.597656 8.886719 -8.464844 L 8.886719 -2.675781 C 8.292969 -2.519531 7.636719 -2.425781 6.90625 -2.425781 Z M 6.90625 -2.425781 "/></g></g></g><g fill="#00ffff" fill-opacity="1"><g transform="translate(207.909917, 197.455229)"><g><path d="M 12.214844 -5.15625 C 12.214844 -9.097656 10.0625 -11.484375 6.523438 -11.484375 C 3.019531 -11.484375 0.769531 -9.0625 0.769531 -5.617188 L 0.769531 -5.597656 C 0.769531 -2.097656 3.175781 0.289062 6.886719 0.289062 C 9.042969 0.289062 10.5625 -0.382812 11.675781 -1.078125 L 10.351562 -3.445312 C 9.542969 -2.867188 8.367188 -2.386719 7.023438 -2.386719 C 5.347656 -2.386719 4.25 -3.460938 3.945312 -4.886719 L 12.214844 -4.886719 Z M 6.503906 -9.003906 C 7.984375 -9.003906 8.867188 -8.042969 9.097656 -6.773438 L 3.964844 -6.773438 C 4.25 -8.042969 5.175781 -9.003906 6.503906 -9.003906 Z M 6.503906 -9.003906 "/></g></g></g><g fill="#00ffff" fill-opacity="1"><g transform="translate(220.178641, 197.455229)"><g><path d="M 6.097656 -2.15625 L 3.425781 -11.042969 L 0.230469 -11.042969 L 4 0 L 8.195312 0 L 11.964844 -11.042969 L 8.773438 -11.042969 Z M 6.097656 -2.15625 "/></g></g></g><g fill="#00ffff" fill-opacity="1"><g transform="translate(231.639687, 197.455229)"><g><path d="M 12.214844 -5.15625 C 12.214844 -9.097656 10.0625 -11.484375 6.523438 -11.484375 C 3.019531 -11.484375 0.769531 -9.0625 0.769531 -5.617188 L 0.769531 -5.597656 C 0.769531 -2.097656 3.175781 0.289062 6.886719 0.289062 C 9.042969 0.289062 10.5625 -0.382812 11.675781 -1.078125 L 10.351562 -3.445312 C 9.542969 -2.867188 8.367188 -2.386719 7.023438 -2.386719 C 5.347656 -2.386719 4.25 -3.460938 3.945312 -4.886719 L 12.214844 -4.886719 Z M 6.503906 -9.003906 C 7.984375 -9.003906 8.867188 -8.042969 9.097656 -6.773438 L 3.964844 -6.773438 C 4.25 -8.042969 5.175781 -9.003906 6.503906 -9.003906 Z M 6.503906 -9.003906 "/></g></g></g><g fill="#00ffff" fill-opacity="1"><g transform="translate(243.908411, 197.455229)"><g><path d="M 4.097656 0 L 4.097656 -15.601562 L 1.039062 -15.601562 L 1.039062 0 Z M 4.097656 0 "/></g></g></g><g fill="#00ffff" fill-opacity="1"><g transform="translate(248.311834, 197.455229)"><g><path d="M 6.90625 0.308594 C 10.523438 0.308594 13.042969 -2.191406 13.042969 -5.597656 L 13.042969 -5.617188 C 13.042969 -9.003906 10.523438 -11.484375 6.90625 -11.484375 C 3.289062 -11.484375 0.789062 -9.003906 0.789062 -5.617188 L 0.789062 -5.597656 C 0.789062 -2.191406 3.308594 0.308594 6.90625 0.308594 Z M 6.90625 -2.425781 C 5.078125 -2.425781 3.847656 -3.808594 3.847656 -5.597656 L 3.847656 -5.636719 C 3.847656 -7.40625 5.058594 -8.753906 6.90625 -8.753906 C 8.773438 -8.753906 9.964844 -7.40625 9.964844 -5.636719 L 9.964844 -5.597656 C 9.964844 -3.808594 8.753906 -2.425781 6.90625 -2.425781 Z M 6.90625 -2.425781 "/></g></g></g><g fill="#00ffff" fill-opacity="1"><g transform="translate(261.38823, 197.455229)"><g><path d="M 4.097656 4.230469 L 4.097656 -0.0195312 C 4.769531 0.152344 5.484375 0.289062 6.195312 0.289062 C 9.945312 0.289062 12.195312 -2.191406 12.195312 -5.558594 L 12.195312 -5.597656 C 12.195312 -8.984375 9.832031 -11.484375 6.058594 -11.484375 C 4 -11.484375 2.367188 -10.964844 1.039062 -10.425781 L 1.039062 4.230469 Z M 6.058594 -2.441406 C 5.40625 -2.441406 4.695312 -2.597656 4.097656 -2.75 L 4.097656 -8.523438 C 4.695312 -8.675781 5.347656 -8.753906 6.058594 -8.753906 C 8.078125 -8.753906 9.117188 -7.386719 9.117188 -5.597656 L 9.117188 -5.558594 C 9.117188 -3.789062 8.078125 -2.441406 6.058594 -2.441406 Z M 6.058594 -2.441406 "/></g></g></g><g fill="#00ffff" fill-opacity="1"><g transform="translate(273.637722, 197.455229)"><g><path d="M 12.214844 -5.15625 C 12.214844 -9.097656 10.0625 -11.484375 6.523438 -11.484375 C 3.019531 -11.484375 0.769531 -9.0625 0.769531 -5.617188 L 0.769531 -5.597656 C 0.769531 -2.097656 3.175781 0.289062 6.886719 0.289062 C 9.042969 0.289062 10.5625 -0.382812 11.675781 -1.078125 L 10.351562 -3.445312 C 9.542969 -2.867188 8.367188 -2.386719 7.023438 -2.386719 C 5.347656 -2.386719 4.25 -3.460938 3.945312 -4.886719 L 12.214844 -4.886719 Z M 6.503906 -9.003906 C 7.984375 -9.003906 8.867188 -8.042969 9.097656 -6.773438 L 3.964844 -6.773438 C 4.25 -8.042969 5.175781 -9.003906 6.503906 -9.003906 Z M 6.503906 -9.003906 "/></g></g></g><g fill="#00ffff" fill-opacity="1"><g transform="translate(285.90644, 197.455229)"><g><path d="M 4.097656 0 L 4.097656 -8.078125 C 4.347656 -8.136719 5.597656 -8.234375 6.058594 -8.234375 L 7.714844 -8.234375 L 7.714844 -11.042969 L 5.558594 -11.042969 C 4.558594 -11.042969 2.65625 -10.964844 1.039062 -10.617188 L 1.039062 0 Z M 4.097656 0 "/></g></g></g><g fill="#4a2fbd" fill-opacity="1"><g transform="translate(152.292375, 197.455229)"><g><path d="M 12.851562 -5.484375 C 12.621094 -4.5 12.40625 -3.539062 12.234375 -2.789062 L 11.621094 -5.5 L 10.484375 -11.042969 L 6.964844 -11.042969 L 5.847656 -5.519531 L 5.214844 -2.558594 C 5.039062 -3.367188 4.886719 -4.15625 4.597656 -5.484375 L 3.5 -11.042969 L 0.347656 -11.042969 L 3.097656 0 L 6.945312 0 L 8.117188 -5.5 C 8.40625 -6.734375 8.578125 -7.558594 8.734375 -8.253906 C 8.945312 -7.328125 9.136719 -6.40625 9.347656 -5.5 L 10.503906 0 L 14.410156 0 L 17.082031 -11.042969 L 13.929688 -11.042969 Z M 12.851562 -5.484375 "/></g></g></g><g fill="#4a2fbd" fill-opacity="1"><g transform="translate(168.984124, 197.455229)"><g><path d="M 12.214844 -5.15625 C 12.214844 -9.097656 10.0625 -11.484375 6.523438 -11.484375 C 3.019531 -11.484375 0.769531 -9.0625 0.769531 -5.617188 L 0.769531 -5.597656 C 0.769531 -2.097656 3.175781 0.289062 6.886719 0.289062 C 9.042969 0.289062 10.5625 -0.382812 11.675781 -1.078125 L 10.351562 -3.445312 C 9.542969 -2.867188 8.367188 -2.386719 7.023438 -2.386719 C 5.347656 -2.386719 4.25 -3.460938 3.945312 -4.886719 L 12.214844 -4.886719 Z M 6.503906 -9.003906 C 7.984375 -9.003906 8.867188 -8.042969 9.097656 -6.773438 L 3.964844 -6.773438 C 4.25 -8.042969 5.175781 -9.003906 6.503906 -9.003906 Z M 6.503906 -9.003906 "/></g></g></g><g fill="#4a2fbd" fill-opacity="1"><g transform="translate(181.252846, 197.455229)"><g><path d="M 6.058594 0.308594 C 9.832031 0.308594 12.195312 -2.191406 12.195312 -5.578125 L 12.195312 -5.617188 C 12.195312 -9.003906 9.964844 -11.484375 6.195312 -11.484375 C 5.484375 -11.484375 4.769531 -11.351562 4.097656 -11.195312 L 4.097656 -15.601562 L 1.039062 -15.601562 L 1.039062 -0.769531 C 2.617188 0 4 0.308594 6.058594 0.308594 Z M 6.058594 -2.425781 C 5.347656 -2.425781 4.695312 -2.519531 4.097656 -2.675781 L 4.097656 -8.464844 C 4.695312 -8.597656 5.40625 -8.753906 6.058594 -8.753906 C 8.078125 -8.753906 9.117188 -7.386719 9.117188 -5.617188 L 9.117188 -5.578125 C 9.117188 -3.808594 8.078125 -2.425781 6.058594 -2.425781 Z M 6.058594 -2.425781 "/></g></g></g><g fill="#4a2fbd" fill-opacity="1"><g transform="translate(193.502341, 197.455229)"><g/></g></g><g fill="#4a2fbd" fill-opacity="1"><g transform="translate(196.021177, 197.455229)"><g><path d="M 6.90625 0.308594 C 8.964844 0.308594 10.351562 0 11.925781 -0.769531 L 11.925781 -15.601562 L 8.886719 -15.601562 L 8.886719 -11.195312 C 8.214844 -11.351562 7.503906 -11.484375 6.789062 -11.484375 C 3.019531 -11.484375 0.789062 -9.003906 0.789062 -5.617188 L 0.789062 -5.578125 C 0.789062 -2.191406 3.136719 0.308594 6.90625 0.308594 Z M 6.90625 -2.425781 C 4.90625 -2.425781 3.847656 -3.808594 3.847656 -5.578125 L 3.847656 -5.617188 C 3.847656 -7.386719 4.90625 -8.753906 6.90625 -8.753906 C 7.578125 -8.753906 8.292969 -8.597656 8.886719 -8.464844 L 8.886719 -2.675781 C 8.292969 -2.519531 7.636719 -2.425781 6.90625 -2.425781 Z M 6.90625 -2.425781 "/></g></g></g><g fill="#4a2fbd" fill-opacity="1"><g transform="translate(208.270672, 197.455229)"><g><path d="M 12.214844 -5.15625 C 12.214844 -9.097656 10.0625 -11.484375 6.523438 -11.484375 C 3.019531 -11.484375 0.769531 -9.0625 0.769531 -5.617188 L 0.769531 -5.597656 C 0.769531 -2.097656 3.175781 0.289062 6.886719 0.289062 C 9.042969 0.289062 10.5625 -0.382812 11.675781 -1.078125 L 10.351562 -3.445312 C 9.542969 -2.867188 8.367188 -2.386719 7.023438 -2.386719 C 5.347656 -2.386719 4.25 -3.460938 3.945312 -4.886719 L 12.214844 -4.886719 Z M 6.503906 -9.003906 C 7.984375 -9.003906 8.867188 -8.042969 9.097656 -6.773438 L 3.964844 -6.773438 C 4.25 -8.042969 5.175781 -9.003906 6.503906 -9.003906 Z M 6.503906 -9.003906 "/></g></g></g><g fill="#4a2fbd" fill-opacity="1"><g transform="translate(220.539396, 197.455229)"><g><path d="M 6.097656 -2.15625 L 3.425781 -11.042969 L 0.230469 -11.042969 L 4 0 L 8.195312 0 L 11.964844 -11.042969 L 8.773438 -11.042969 Z M 6.097656 -2.15625 "/></g></g></g><g fill="#4a2fbd" fill-opacity="1"><g transform="translate(232.000441, 197.455229)"><g><path d="M 12.214844 -5.15625 C 12.214844 -9.097656 10.0625 -11.484375 6.523438 -11.484375 C 3.019531 -11.484375 0.769531 -9.0625 0.769531 -5.617188 L 0.769531 -5.597656 C 0.769531 -2.097656 3.175781 0.289062 6.886719 0.289062 C 9.042969 0.289062 10.5625 -0.382812 11.675781 -1.078125 L 10.351562 -3.445312 C 9.542969 -2.867188 8.367188 -2.386719 7.023438 -2.386719 C 5.347656 -2.386719 4.25 -3.460938 3.945312 -4.886719 L 12.214844 -4.886719 Z M 6.503906 -9.003906 C 7.984375 -9.003906 8.867188 -8.042969 9.097656 -6.773438 L 3.964844 -6.773438 C 4.25 -8.042969 5.175781 -9.003906 6.503906 -9.003906 Z M 6.503906 -9.003906 "/></g></g></g><g fill="#4a2fbd" fill-opacity="1"><g transform="translate(244.269165, 197.455229)"><g><path d="M 4.097656 0 L 4.097656 -15.601562 L 1.039062 -15.601562 L 1.039062 0 Z M 4.097656 0 "/></g></g></g><g fill="#4a2fbd" fill-opacity="1"><g transform="translate(248.672588, 197.455229)"><g><path d="M 6.90625 0.308594 C 10.523438 0.308594 13.042969 -2.191406 13.042969 -5.597656 L 13.042969 -5.617188 C 13.042969 -9.003906 10.523438 -11.484375 6.90625 -11.484375 C 3.289062 -11.484375 0.789062 -9.003906 0.789062 -5.617188 L 0.789062 -5.597656 C 0.789062 -2.191406 3.308594 0.308594 6.90625 0.308594 Z M 6.90625 -2.425781 C 5.078125 -2.425781 3.847656 -3.808594 3.847656 -5.597656 L 3.847656 -5.636719 C 3.847656 -7.40625 5.058594 -8.753906 6.90625 -8.753906 C 8.773438 -8.753906 9.964844 -7.40625 9.964844 -5.636719 L 9.964844 -5.597656 C 9.964844 -3.808594 8.753906 -2.425781 6.90625 -2.425781 Z M 6.90625 -2.425781 "/></g></g></g><g fill="#4a2fbd" fill-opacity="1"><g transform="translate(261.748985, 197.455229)"><g><path d="M 4.097656 4.230469 L 4.097656 -0.0195312 C 4.769531 0.152344 5.484375 0.289062 6.195312 0.289062 C 9.945312 0.289062 12.195312 -2.191406 12.195312 -5.558594 L 12.195312 -5.597656 C 12.195312 -8.984375 9.832031 -11.484375 6.058594 -11.484375 C 4 -11.484375 2.367188 -10.964844 1.039062 -10.425781 L 1.039062 4.230469 Z M 6.058594 -2.441406 C 5.40625 -2.441406 4.695312 -2.597656 4.097656 -2.75 L 4.097656 -8.523438 C 4.695312 -8.675781 5.347656 -8.753906 6.058594 -8.753906 C 8.078125 -8.753906 9.117188 -7.386719 9.117188 -5.597656 L 9.117188 -5.558594 C 9.117188 -3.789062 8.078125 -2.441406 6.058594 -2.441406 Z M 6.058594 -2.441406 "/></g></g></g><g fill="#4a2fbd" fill-opacity="1"><g transform="translate(273.998477, 197.455229)"><g><path d="M 12.214844 -5.15625 C 12.214844 -9.097656 10.0625 -11.484375 6.523438 -11.484375 C 3.019531 -11.484375 0.769531 -9.0625 0.769531 -5.617188 L 0.769531 -5.597656 C 0.769531 -2.097656 3.175781 0.289062 6.886719 0.289062 C 9.042969 0.289062 10.5625 -0.382812 11.675781 -1.078125 L 10.351562 -3.445312 C 9.542969 -2.867188 8.367188 -2.386719 7.023438 -2.386719 C 5.347656 -2.386719 4.25 -3.460938 3.945312 -4.886719 L 12.214844 -4.886719 Z M 6.503906 -9.003906 C 7.984375 -9.003906 8.867188 -8.042969 9.097656 -6.773438 L 3.964844 -6.773438 C 4.25 -8.042969 5.175781 -9.003906 6.503906 -9.003906 Z M 6.503906 -9.003906 "/></g></g></g><g fill="#4a2fbd" fill-opacity="1"><g transform="translate(286.267195, 197.455229)"><g><path d="M 4.097656 0 L 4.097656 -8.078125 C 4.347656 -8.136719 5.597656 -8.234375 6.058594 -8.234375 L 7.714844 -8.234375 L 7.714844 -11.042969 L 5.558594 -11.042969 C 4.558594 -11.042969 2.65625 -10.964844 1.039062 -10.617188 L 1.039062 0 Z M 4.097656 0 "/></g></g></g></svg>